<svg width="26" height="29" viewBox="0 0 26 29" fill="none" xmlns="http://www.w3.org/2000/svg">
<path d="M19.309 7.31461L19.309 7.31454L19.2968 7.3125C18.5314 7.18461 17.6176 7.24921 16.5894 7.45629C16.7814 7.32778 16.9622 7.18563 17.1305 7.02905L17.1571 7.00426L17.1819 6.9776C17.7378 6.37946 18.1111 5.62491 18.338 4.76467C18.5288 4.14272 18.6198 3.47958 18.6198 2.78125V2.74795L18.6176 2.71473L18.5687 1.98231L18.5105 1.10933L17.6376 1.05105L16.9061 1.00222L16.8729 1H16.8395C16.1416 1 15.479 1.09105 14.8571 1.28257C13.9978 1.51013 13.244 1.88404 12.6467 2.4397L12.6332 2.45227L12.6201 2.46533C11.7941 3.29267 11.359 4.42825 11.2123 5.74685L11.2123 5.74726C11.1406 6.39466 11.1366 7.00273 11.2162 7.56105L11.2789 8.00102C10.9433 7.88618 10.5935 7.77834 10.2302 7.67723L10.2229 7.6752L10.2156 7.67329C8.80435 7.30345 7.56784 7.1472 6.57853 7.3125L6.57852 7.31243L6.56634 7.31461C5.01798 7.59305 3.75838 8.4374 2.80826 9.7687L2.80826 9.7687L2.80637 9.77136C1.98512 10.9301 1.45215 12.3495 1.17346 13.9908L1.17343 13.9908L1.17235 13.9974C0.926062 15.5095 0.944286 17.0223 1.22347 18.5318C1.63514 20.9643 2.46608 23.0545 3.74706 24.7654C5.30955 26.8739 7.34803 28 9.81608 28C10.545 28 11.2745 27.773 11.9892 27.3964L12.0186 27.381L12.0468 27.3636C12.3057 27.2045 12.5937 27.1211 12.9377 27.1211C13.2819 27.1211 13.5702 27.2046 13.8281 27.3633L13.8565 27.3809L13.8861 27.3964C14.6008 27.773 15.3303 28 16.0592 28C18.5274 28 20.5659 26.8739 22.1284 24.7653C23.4093 23.0544 24.2402 20.9642 24.6519 18.5318C24.931 17.0223 24.9493 15.5094 24.703 13.9974L24.703 13.9974L24.7019 13.9908C24.4232 12.3495 23.8902 10.9301 23.069 9.77136L23.0671 9.7687C22.1169 8.4374 20.8574 7.59305 19.309 7.31461ZM12.9377 8.46875C13.1038 8.46875 13.2679 8.46359 13.4299 8.45315C13.2611 8.52741 13.0968 8.60397 12.9372 8.68289C12.7647 8.59765 12.5869 8.51514 12.4037 8.43533L12.8711 8.46653L12.9043 8.46875H12.9377Z" stroke="#383838" stroke-width="2"/>
</svg>
