<svg width="29" height="27" viewBox="0 0 29 27" fill="none" xmlns="http://www.w3.org/2000/svg">
<path d="M14.5 1C10.4249 1 7.10164 2.05703 4.76774 3.60436C2.47057 5.12734 1 7.23101 1 9.34115C1 10.2767 1.37931 11.144 2.07277 11.7681C2.53836 12.1872 3.12002 12.4751 3.77778 12.6181V22.8333C3.77778 24.26 5.0391 25.2222 6.34028 25.2222H22.6597C23.9609 25.2222 25.2222 24.26 25.2222 22.8333V12.6181C25.88 12.4751 26.4616 12.1872 26.9272 11.7681C27.6207 11.144 28 10.2767 28 9.34115C28 7.23101 26.5294 5.12734 24.2323 3.60436C21.8984 2.05703 18.5751 1 14.5 1Z" stroke="#383838" stroke-width="2"/>
</svg>
