<svg width="30" height="30" viewBox="0 0 30 30" fill="none" xmlns="http://www.w3.org/2000/svg">
<path d="M16.9966 9.74773L16.9965 9.74767C13.9942 8.28358 10.4802 9.15263 8.45258 11.6119L8.15551 11.9722L8.08047 11.8972L7.88228 12.3036L7.8747 12.3128L7.87678 12.3149L7.46595 13.1574L1.21106 25.9846L1.20954 25.9877C0.940034 26.5453 0.920302 27.2228 1.20991 27.8207L1.21066 27.8222C1.71809 28.8653 2.97802 29.29 4.0122 28.7869L4.01332 28.7864L10.5368 25.6028L11.3788 25.1919L11.38 25.1931L12.0213 24.8801L17.0012 22.4487C17.0014 22.4486 17.0016 22.4485 17.0018 22.4484C18.3669 21.7828 19.5333 20.6674 20.2497 19.2006L20.2499 19.2002C21.3582 16.9282 21.1386 14.3532 19.8934 12.3554C20.9572 13.065 22.1679 13.4079 23.3867 13.3513C25.0183 13.2757 26.5865 12.488 27.7682 11.0592L28.2958 10.4212L27.7676 9.78379C26.3562 8.08076 24.4056 7.29679 22.4938 7.50383C22.7008 5.59196 21.9168 3.64136 20.2138 2.23003L19.5756 1.70114L18.9375 2.23015C17.5097 3.4138 16.7219 4.98151 16.6462 6.61271C16.5897 7.83156 16.9329 9.04168 17.6427 10.1052C17.4359 9.97637 17.2204 9.85692 16.9966 9.74773Z" stroke="#383838" stroke-width="2"/>
</svg>
