<svg width="19" height="33" viewBox="0 0 19 33" fill="none" xmlns="http://www.w3.org/2000/svg">
<path fill-rule="evenodd" clip-rule="evenodd" d="M17.6754 1.01214C17.7889 1.12535 17.8789 1.25984 17.9403 1.40791C18.0018 1.55597 18.0334 1.7147 18.0334 1.87501C18.0334 2.03532 18.0018 2.19405 17.9403 2.34212C17.8789 2.49019 17.7889 2.62468 17.6754 2.73789L3.91079 16.5L17.6754 30.2621C17.9042 30.491 18.0328 30.8014 18.0328 31.125C18.0328 31.4487 17.9042 31.759 17.6754 31.9879C17.4465 32.2167 17.1361 32.3453 16.8125 32.3453C16.4888 32.3453 16.1785 32.2167 15.9496 31.9879L1.32461 17.3629C1.21111 17.2497 1.12106 17.1152 1.05962 16.9671C0.998178 16.8191 0.966553 16.6603 0.966553 16.5C0.966553 16.3397 0.998178 16.181 1.05962 16.0329C1.12106 15.8848 1.21111 15.7503 1.32461 15.6371L15.9496 1.01214C16.0628 0.898639 16.1973 0.808591 16.3454 0.74715C16.4934 0.685709 16.6522 0.654083 16.8125 0.654083C16.9728 0.654083 17.1315 0.685709 17.2796 0.74715C17.4277 0.808591 17.5621 0.898639 17.6754 1.01214Z" fill="white"/>
</svg>
