<svg width="31" height="33" viewBox="0 0 31 33" fill="none" xmlns="http://www.w3.org/2000/svg">
<path d="M30.604 20.4653L27.8228 18.8286C28.1035 17.2851 28.1035 15.7016 27.8228 14.1581L30.604 12.5214C30.924 12.3351 31.0676 11.9492 30.9631 11.5899C30.2384 9.2214 29.0045 7.07907 27.3919 5.29601C27.1438 5.02323 26.739 4.9567 26.4256 5.14299L23.6444 6.77967C22.4757 5.75508 21.1308 4.96335 19.6749 4.4444V1.17768C19.6749 0.805099 19.4202 0.479093 19.0612 0.399254C16.6651 -0.146308 14.2103 -0.119695 11.9317 0.399254C11.5727 0.479093 11.318 0.805099 11.318 1.17768V4.45105C9.86865 4.97666 8.52372 5.76839 7.34854 6.78633L4.57381 5.14964C4.2539 4.96335 3.85564 5.02323 3.60755 5.30266C1.99494 7.07907 0.761002 9.2214 0.0363078 11.5966C-0.0746814 11.9559 0.0754805 12.3417 0.395391 12.528L3.17665 14.1647C2.89591 15.7083 2.89591 17.2917 3.17665 18.8353L0.395391 20.472C0.0754805 20.6582 -0.0681526 21.0441 0.0363078 21.4034C0.761002 23.7719 1.99494 25.9143 3.60755 27.6973C3.85564 27.9701 4.26043 28.0366 4.57381 27.8504L7.35507 26.2137C8.52372 27.2383 9.86865 28.03 11.3246 28.5489V31.8223C11.3246 32.1949 11.5792 32.5209 11.9383 32.6007C14.3343 33.1463 16.7892 33.1197 19.0677 32.6007C19.4268 32.5209 19.6814 32.1949 19.6814 31.8223V28.5489C21.1308 28.0233 22.4757 27.2316 23.6509 26.2137L26.4322 27.8504C26.7521 28.0366 27.1503 27.9768 27.3984 27.6973C29.011 25.9209 30.245 23.7786 30.9697 21.4034C31.0676 21.0375 30.924 20.6516 30.604 20.4653ZM15.4965 21.8159C12.6173 21.8159 10.2734 19.4274 10.2734 16.4933C10.2734 13.5593 12.6173 11.1708 15.4965 11.1708C18.3756 11.1708 20.7195 13.5593 20.7195 16.4933C20.7195 19.4274 18.3756 21.8159 15.4965 21.8159Z" fill="#F4F4F4"/>
</svg>
