<svg width="24" height="24" viewBox="0 0 24 24" fill="none" xmlns="http://www.w3.org/2000/svg">
<path d="M18.2187 0.220341C18.2884 0.150496 18.3711 0.0950816 18.4623 0.0572719C18.5534 0.0194622 18.6511 0 18.7497 0C18.8484 0 18.946 0.0194622 19.0372 0.0572719C19.1283 0.0950816 19.211 0.150496 19.2807 0.220341L23.7807 4.72034C23.8506 4.79001 23.906 4.87277 23.9438 4.96389C23.9816 5.05501 24.001 5.15269 24.001 5.25134C24.001 5.34999 23.9816 5.44767 23.9438 5.53879C23.906 5.62991 23.8506 5.71267 23.7807 5.78234L8.78071 20.7823C8.70873 20.8538 8.623 20.9099 8.52871 20.9473L1.02871 23.9473C0.892413 24.0019 0.743103 24.0153 0.599288 23.9858C0.455474 23.9562 0.32348 23.8852 0.21967 23.7814C0.11586 23.6776 0.0448002 23.5456 0.015299 23.4018C-0.0142021 23.2579 -0.000846891 23.1086 0.0537091 22.9723L3.05371 15.4723C3.0911 15.378 3.14723 15.2923 3.21871 15.2203L18.2187 0.220341ZM16.8102 3.75134L20.2497 7.19084L22.1892 5.25134L18.7497 1.81184L16.8102 3.75134ZM19.1892 8.25134L15.7497 4.81184L5.99971 14.5618V15.0013H6.74971C6.94862 15.0013 7.13939 15.0804 7.28004 15.221C7.42069 15.3617 7.49971 15.5524 7.49971 15.7513V16.5013H8.24971C8.44862 16.5013 8.63939 16.5804 8.78004 16.721C8.92069 16.8617 8.99971 17.0524 8.99971 17.2513V18.0013H9.43921L19.1892 8.25134ZM4.54771 16.0138L4.38871 16.1728L2.09671 21.9043L7.82821 19.6123L7.98721 19.4533C7.84414 19.3999 7.7208 19.304 7.63368 19.1786C7.54656 19.0531 7.49982 18.9041 7.49971 18.7513V18.0013H6.74971C6.5508 18.0013 6.36003 17.9223 6.21938 17.7817C6.07873 17.641 5.99971 17.4503 5.99971 17.2513V16.5013H5.24971C5.09698 16.5012 4.94792 16.4545 4.82247 16.3674C4.69703 16.2803 4.60116 16.1569 4.54771 16.0138Z" fill="#383838"/>
</svg>
