<svg width="33" height="33" viewBox="0 0 33 33" fill="none" xmlns="http://www.w3.org/2000/svg">
<path fill-rule="evenodd" clip-rule="evenodd" d="M4.125 27.8438V14.4375H6.1875V27.8438C6.1875 28.1173 6.29615 28.3796 6.48955 28.573C6.68294 28.7664 6.94525 28.875 7.21875 28.875H25.7812C26.0548 28.875 26.3171 28.7664 26.5105 28.573C26.7039 28.3796 26.8125 28.1173 26.8125 27.8438V14.4375H28.875V27.8438C28.875 28.6643 28.5491 29.4512 27.9689 30.0314C27.3887 30.6116 26.6018 30.9375 25.7812 30.9375H7.21875C6.39824 30.9375 5.61133 30.6116 5.03114 30.0314C4.45095 29.4512 4.125 28.6643 4.125 27.8438ZM26.8125 5.15625V12.375L22.6875 8.25V5.15625C22.6875 4.88275 22.7961 4.62044 22.9895 4.42705C23.1829 4.23365 23.4452 4.125 23.7188 4.125H25.7812C26.0548 4.125 26.3171 4.23365 26.5105 4.42705C26.7039 4.62044 26.8125 4.88275 26.8125 5.15625Z" fill="white"/>
<path fill-rule="evenodd" clip-rule="evenodd" d="M15.0418 3.09374C15.4286 2.70708 15.9531 2.48987 16.5 2.48987C17.0469 2.48987 17.5714 2.70708 17.9582 3.09374L31.6676 16.8011C31.8613 16.9948 31.9701 17.2574 31.9701 17.5312C31.9701 17.8051 31.8613 18.0677 31.6676 18.2614C31.474 18.455 31.2114 18.5638 30.9375 18.5638C30.6637 18.5638 30.401 18.455 30.2074 18.2614L16.5 4.55193L2.79263 18.2614C2.59899 18.455 2.33636 18.5638 2.06251 18.5638C1.78866 18.5638 1.52602 18.455 1.33238 18.2614C1.13874 18.0677 1.02995 17.8051 1.02995 17.5312C1.02995 17.2574 1.13874 16.9948 1.33238 16.8011L15.0418 3.09374Z" fill="white"/>
</svg>
