<svg width="139" height="88" viewBox="0 0 139 88" fill="none" xmlns="http://www.w3.org/2000/svg">
<g filter="url(#filter0_d_68_77)">
<path d="M35.98 72.05C35.98 72.21 35.88 72.42 35.68 72.68C35.5 72.92 35.24 73.16 34.9 73.4C34.58 73.64 34.2 73.85 33.76 74.03C33.34 74.21 32.89 74.3 32.41 74.3C31.67 74.3 31.02 74.07 30.46 73.61C29.9 73.13 29.39 72.48 28.93 71.66C28.49 70.84 28.08 69.87 27.7 68.75C27.32 67.61 26.93 66.38 26.53 65.06L25.39 65.81L24.82 73.55C24.8 73.71 24.76 73.83 24.7 73.91C24.64 73.97 24.52 74 24.34 74H22.69C21.55 74 20.74 73.78 20.26 73.34C19.8 72.88 19.57 72.21 19.57 71.33C19.57 71.05 19.58 70.63 19.6 70.07C19.64 69.49 19.69 68.82 19.75 68.06C19.81 67.28 19.87 66.43 19.93 65.51C20.01 64.59 20.09 63.65 20.17 62.69C20.31 60.77 20.42 59.25 20.5 58.13C20.6 57.01 20.67 56.13 20.71 55.49C20.75 54.83 20.78 54.35 20.8 54.05C20.82 53.73 20.83 53.43 20.83 53.15C20.83 52.85 20.99 52.7 21.31 52.7H22.96C23.6 52.7 24.11 52.77 24.49 52.91C24.89 53.03 25.2 53.21 25.42 53.45C25.64 53.69 25.79 53.99 25.87 54.35C25.95 54.69 25.99 55.09 25.99 55.55C25.99 56.01 25.96 56.76 25.9 57.8C25.86 58.82 25.79 59.97 25.69 61.25C26.37 60.41 27.18 59.37 28.12 58.13C29.08 56.89 30.24 55.36 31.6 53.54C31.66 53.46 31.74 53.36 31.84 53.24C31.96 53.1 32.08 52.97 32.2 52.85C32.34 52.73 32.48 52.63 32.62 52.55C32.78 52.45 32.93 52.4 33.07 52.4C33.33 52.4 33.63 52.54 33.97 52.82C34.31 53.08 34.63 53.41 34.93 53.81C35.23 54.19 35.48 54.59 35.68 55.01C35.9 55.41 36.01 55.75 36.01 56.03C36.01 56.61 35.49 57.48 34.45 58.64C33.41 59.78 31.92 61.1 29.98 62.6C30.32 63.18 30.71 63.81 31.15 64.49C31.59 65.15 32.03 65.83 32.47 66.53C32.91 67.21 33.34 67.88 33.76 68.54C34.18 69.18 34.55 69.76 34.87 70.28C35.21 70.78 35.48 71.19 35.68 71.51C35.88 71.83 35.98 72.01 35.98 72.05ZM44.1541 74.3C42.7741 74.3 41.6241 74.11 40.7041 73.73C39.8041 73.33 39.0841 72.79 38.5441 72.11C38.0041 71.43 37.6241 70.64 37.4041 69.74C37.1841 68.82 37.0741 67.84 37.0741 66.8C37.0741 65.6 37.2141 64.43 37.4941 63.29C37.7941 62.13 38.2941 61.1 38.9941 60.2C39.6941 59.3 40.6141 58.58 41.7541 58.04C42.9141 57.48 44.3541 57.2 46.0741 57.2C48.5941 57.2 50.3941 57.82 51.4741 59.06C52.5741 60.28 53.1241 62 53.1241 64.22C53.1241 64.84 53.0741 65.53 52.9741 66.29C52.8941 67.03 52.7241 67.77 52.4641 68.51C52.2241 69.25 51.8841 69.97 51.4441 70.67C51.0241 71.37 50.4841 71.99 49.8241 72.53C49.1641 73.07 48.3641 73.5 47.4241 73.82C46.5041 74.14 45.4141 74.3 44.1541 74.3ZM45.5641 61.19C44.8041 61.19 44.1941 61.39 43.7341 61.79C43.2941 62.17 42.9541 62.64 42.7141 63.2C42.4941 63.74 42.3441 64.32 42.2641 64.94C42.2041 65.54 42.1741 66.05 42.1741 66.47C42.1741 67.79 42.3841 68.76 42.8041 69.38C43.2241 70 43.8241 70.31 44.6041 70.31C45.3041 70.31 45.8741 70.09 46.3141 69.65C46.7741 69.21 47.1241 68.68 47.3641 68.06C47.6241 67.44 47.7941 66.79 47.8741 66.11C47.9741 65.43 48.0241 64.86 48.0241 64.4C48.0241 63.4 47.8341 62.62 47.4541 62.06C47.0941 61.48 46.4641 61.19 45.5641 61.19ZM62.3538 57.2C64.0538 57.2 65.3038 57.54 66.1038 58.22C66.9038 58.88 67.3038 59.73 67.3038 60.77C67.3038 61.65 67.0238 62.32 66.4638 62.78C65.9238 63.24 65.1338 63.47 64.0938 63.47C63.8138 63.47 63.6238 63.44 63.5238 63.38C63.4238 63.32 63.3738 63.21 63.3738 63.05C63.3738 62.87 63.3538 62.67 63.3138 62.45C63.2938 62.21 63.2238 61.99 63.1038 61.79C63.0038 61.57 62.8338 61.39 62.5938 61.25C62.3738 61.11 62.0538 61.04 61.6338 61.04C61.0738 61.04 60.6238 61.18 60.2838 61.46C59.9438 61.72 59.7738 62.05 59.7738 62.45C59.7738 62.87 59.9438 63.21 60.2838 63.47C60.6438 63.71 61.0838 63.94 61.6038 64.16C62.1438 64.38 62.7238 64.61 63.3438 64.85C63.9638 65.07 64.5338 65.37 65.0538 65.75C65.5938 66.13 66.0338 66.61 66.3738 67.19C66.7338 67.75 66.9138 68.48 66.9138 69.38C66.9138 70.82 66.4038 72 65.3838 72.92C64.3638 73.84 62.8338 74.3 60.7938 74.3C60.2338 74.3 59.5838 74.25 58.8438 74.15C58.1238 74.07 57.4338 73.94 56.7738 73.76C56.1138 73.56 55.5538 73.3 55.0938 72.98C54.6538 72.66 54.4338 72.26 54.4338 71.78C54.4338 71.6 54.4638 71.38 54.5238 71.12C54.6038 70.86 54.7138 70.61 54.8538 70.37C55.0138 70.13 55.1938 69.93 55.3938 69.77C55.6138 69.59 55.8738 69.5 56.1738 69.5C56.4138 69.5 56.6338 69.56 56.8338 69.68C57.0338 69.8 57.2638 69.93 57.5238 70.07C57.8038 70.19 58.1438 70.31 58.5438 70.43C58.9438 70.55 59.4738 70.61 60.1338 70.61C60.6338 70.61 61.0738 70.55 61.4538 70.43C61.8538 70.31 62.0538 70.04 62.0538 69.62C62.0538 69.24 61.8938 68.94 61.5738 68.72C61.2538 68.48 60.8438 68.26 60.3438 68.06C59.8638 67.86 59.3338 67.65 58.7538 67.43C58.1938 67.19 57.6638 66.88 57.1638 66.5C56.6838 66.12 56.2838 65.64 55.9638 65.06C55.6438 64.46 55.4838 63.69 55.4838 62.75C55.4838 61.73 55.6838 60.87 56.0838 60.17C56.5038 59.45 57.0338 58.87 57.6738 58.43C58.3338 57.99 59.0738 57.68 59.8938 57.5C60.7138 57.3 61.5338 57.2 62.3538 57.2ZM79.4156 70.28C79.4756 69.62 79.5356 68.93 79.5956 68.21C79.6756 67.49 79.7356 66.8 79.7756 66.14C79.8356 65.48 79.8856 64.89 79.9256 64.37C79.9656 63.85 79.9856 63.47 79.9856 63.23C79.9856 62.71 79.8556 62.25 79.5956 61.85C79.3556 61.43 78.8756 61.22 78.1556 61.22C77.1956 61.22 76.4156 61.67 75.8156 62.57C75.2356 63.47 74.8956 64.67 74.7956 66.17C74.7556 66.59 74.7056 67.18 74.6456 67.94C74.5856 68.68 74.5256 69.44 74.4656 70.22C74.4056 70.98 74.3456 71.67 74.2856 72.29C74.2456 72.89 74.2256 73.26 74.2256 73.4C74.2256 73.64 74.1756 73.8 74.0756 73.88C73.9956 73.96 73.8256 74 73.5656 74H72.4856C71.8656 74 71.3556 73.94 70.9556 73.82C70.5756 73.68 70.2656 73.49 70.0256 73.25C69.8056 73.01 69.6456 72.72 69.5456 72.38C69.4656 72.02 69.4256 71.61 69.4256 71.15C69.4256 70.71 69.4556 70.1 69.5156 69.32C69.5956 68.52 69.6956 67.43 69.8156 66.05C69.9356 64.65 70.0756 62.87 70.2356 60.71C70.3956 58.55 70.5656 55.87 70.7456 52.67C70.7656 52.23 70.8156 51.97 70.8956 51.89C70.9556 51.83 71.1156 51.8 71.3756 51.8H72.5456C73.1456 51.8 73.6456 51.87 74.0456 52.01C74.4456 52.15 74.7656 52.34 75.0056 52.58C75.2456 52.82 75.4156 53.1 75.5156 53.42C75.6156 53.72 75.6656 54.04 75.6656 54.38C75.6656 54.74 75.6256 55.41 75.5456 56.39C75.4856 57.37 75.4056 58.52 75.3056 59.84C75.9056 58.84 76.5656 58.15 77.2856 57.77C78.0256 57.39 78.9556 57.2 80.0756 57.2C80.9156 57.2 81.6456 57.29 82.2656 57.47C82.8856 57.65 83.3956 57.96 83.7956 58.4C84.2156 58.82 84.5256 59.38 84.7256 60.08C84.9256 60.76 85.0256 61.61 85.0256 62.63C85.0256 62.95 84.9956 63.5 84.9356 64.28C84.8756 65.06 84.7956 65.95 84.6956 66.95C84.6156 67.95 84.5256 69 84.4256 70.1C84.3456 71.18 84.2756 72.17 84.2156 73.07C84.1956 73.29 84.1756 73.46 84.1556 73.58C84.1356 73.7 84.0956 73.79 84.0356 73.85C83.9956 73.91 83.9256 73.95 83.8256 73.97C83.7256 73.99 83.5856 74 83.4056 74H82.4456C81.8056 74 81.2856 73.94 80.8856 73.82C80.4856 73.7 80.1756 73.53 79.9556 73.31C79.7356 73.09 79.5756 72.82 79.4756 72.5C79.3956 72.16 79.3556 71.78 79.3556 71.36C79.3556 71.16 79.3556 70.97 79.3556 70.79C79.3756 70.61 79.3956 70.44 79.4156 70.28ZM93.4375 60.26C93.4375 60.72 93.4075 61.27 93.3475 61.91C93.2875 62.53 93.2175 63.16 93.1375 63.8C93.0775 64.42 93.0175 65.01 92.9575 65.57C92.8975 66.11 92.8675 66.53 92.8675 66.83C92.8675 67.59 93.0475 68.16 93.4075 68.54C93.7875 68.9 94.2475 69.08 94.7875 69.08C95.7275 69.08 96.4775 68.59 97.0375 67.61C97.5975 66.63 97.9475 65.33 98.0875 63.71L98.5675 58.1C98.5875 57.88 98.6575 57.73 98.7775 57.65C98.9175 57.55 99.0675 57.5 99.2275 57.5H100.308C100.728 57.5 101.118 57.54 101.478 57.62C101.858 57.68 102.188 57.81 102.468 58.01C102.748 58.19 102.968 58.44 103.128 58.76C103.288 59.08 103.368 59.49 103.368 59.99C103.368 60.19 103.348 60.57 103.308 61.13C103.288 61.67 103.238 62.46 103.158 63.5C103.098 64.52 103.008 65.82 102.888 67.4C102.768 68.96 102.628 70.87 102.468 73.13C102.368 74.45 102.068 75.54 101.568 76.4C101.088 77.28 100.478 77.97 99.7375 78.47C98.9975 78.99 98.1675 79.35 97.2475 79.55C96.3275 79.75 95.3875 79.85 94.4275 79.85C93.4075 79.85 92.4675 79.76 91.6075 79.58C90.7675 79.4 90.0375 79.15 89.4175 78.83C88.7975 78.51 88.3075 78.14 87.9475 77.72C87.6075 77.3 87.4375 76.85 87.4375 76.37C87.4375 75.99 87.5175 75.66 87.6775 75.38C87.8575 75.1 88.0875 74.87 88.3675 74.69C88.6475 74.51 88.9675 74.37 89.3275 74.27C89.7075 74.19 90.0975 74.15 90.4975 74.15C90.6975 74.15 90.8375 74.25 90.9175 74.45C91.0175 74.65 91.1575 74.87 91.3375 75.11C91.5375 75.37 91.8475 75.6 92.2675 75.8C92.6875 76 93.3175 76.1 94.1575 76.1C94.8975 76.1 95.4975 75.92 95.9575 75.56C96.4175 75.2 96.7675 74.74 97.0075 74.18C97.2675 73.62 97.4375 73.01 97.5175 72.35C97.5975 71.69 97.6375 71.06 97.6375 70.46C97.3175 71.02 96.9575 71.48 96.5575 71.84C96.1775 72.18 95.7775 72.45 95.3575 72.65C94.9375 72.83 94.5175 72.95 94.0975 73.01C93.6775 73.07 93.2775 73.1 92.8975 73.1C92.1575 73.1 91.4775 73 90.8575 72.8C90.2575 72.6 89.7375 72.28 89.2975 71.84C88.8575 71.38 88.5175 70.79 88.2775 70.07C88.0375 69.35 87.9175 68.48 87.9175 67.46C87.9175 67.08 87.9375 66.58 87.9775 65.96C88.0175 65.32 88.0675 64.61 88.1275 63.83C88.1875 63.03 88.2475 62.17 88.3075 61.25C88.3875 60.33 88.4675 59.39 88.5475 58.43C88.5875 57.81 88.8675 57.5 89.3875 57.5H90.3475C90.9875 57.5 91.5075 57.56 91.9075 57.68C92.3075 57.8 92.6175 57.98 92.8375 58.22C93.0775 58.44 93.2375 58.73 93.3175 59.09C93.3975 59.43 93.4375 59.82 93.4375 60.26ZM120.268 71.57C120.268 71.67 120.218 71.87 120.118 72.17C120.018 72.47 119.858 72.78 119.638 73.1C119.418 73.42 119.138 73.7 118.798 73.94C118.478 74.18 118.088 74.3 117.628 74.3C117.088 74.3 116.548 74.12 116.008 73.76C115.488 73.4 114.968 72.91 114.448 72.29C113.928 71.67 113.398 70.94 112.858 70.1C112.338 69.24 111.808 68.31 111.268 67.31C111.188 68.37 111.108 69.41 111.028 70.43C110.948 71.45 110.868 72.44 110.788 73.4C110.768 73.64 110.718 73.8 110.638 73.88C110.558 73.96 110.388 74 110.128 74H109.048C108.428 74 107.918 73.94 107.518 73.82C107.118 73.68 106.808 73.49 106.588 73.25C106.368 73.01 106.208 72.71 106.108 72.35C106.028 71.97 105.988 71.54 105.988 71.06C105.988 70.82 105.998 70.57 106.018 70.31C106.038 70.05 106.068 69.68 106.108 69.2C106.148 68.72 106.198 68.09 106.258 67.31C106.338 66.53 106.428 65.5 106.528 64.22C106.628 62.94 106.738 61.37 106.858 59.51C106.998 57.63 107.148 55.35 107.308 52.67C107.328 52.23 107.378 51.97 107.458 51.89C107.518 51.83 107.678 51.8 107.938 51.8H109.108C109.728 51.8 110.238 51.87 110.638 52.01C111.038 52.15 111.358 52.34 111.598 52.58C111.838 52.82 111.998 53.1 112.078 53.42C112.178 53.74 112.228 54.07 112.228 54.41C112.228 54.61 112.208 54.95 112.168 55.43C112.148 55.89 112.118 56.46 112.078 57.14C112.038 57.8 111.978 58.55 111.898 59.39C111.838 60.23 111.778 61.11 111.718 62.03L116.518 57.65C116.698 57.49 116.858 57.38 116.998 57.32C117.158 57.26 117.278 57.23 117.358 57.23C117.578 57.23 117.818 57.37 118.078 57.65C118.338 57.93 118.578 58.26 118.798 58.64C119.038 59 119.228 59.38 119.368 59.78C119.528 60.16 119.608 60.47 119.608 60.71C119.608 61.29 119.138 61.9 118.198 62.54C117.278 63.18 115.878 63.9 113.998 64.7C114.838 65.64 115.638 66.5 116.398 67.28C117.158 68.06 117.818 68.75 118.378 69.35C118.958 69.95 119.418 70.44 119.758 70.82C120.098 71.2 120.268 71.45 120.268 71.57Z" fill="#F4F4F4"/>
</g>
<g filter="url(#filter1_d_68_77)">
<path d="M35.0001 3.22392C41.533 2.46258 44.7162 5.88992 49.6178 18.1554" stroke="#F4F4F4" stroke-width="4" stroke-linecap="round" stroke-linejoin="round"/>
<path d="M49.5836 18.1276C57.2566 35.7991 77.824 23.3135 87.1177 42.1806" stroke="#F4F4F4" stroke-width="4" stroke-linecap="round" stroke-linejoin="round"/>
<path d="M57.9999 18.0925C90.5306 12.5514 92.4409 14.4093 86.8827 29.4894" stroke="#F4F4F4" stroke-width="4" stroke-linecap="round"/>
<circle cx="58.5993" cy="38.5993" r="5.59931" fill="#F4F4F4"/>
</g>
<defs>
<filter id="filter0_d_68_77" x="15.5701" y="51.8" width="108.698" height="36.05" filterUnits="userSpaceOnUse" color-interpolation-filters="sRGB">
<feFlood flood-opacity="0" result="BackgroundImageFix"/>
<feColorMatrix in="SourceAlpha" type="matrix" values="0 0 0 0 0 0 0 0 0 0 0 0 0 0 0 0 0 0 127 0" result="hardAlpha"/>
<feOffset dy="4"/>
<feGaussianBlur stdDeviation="2"/>
<feComposite in2="hardAlpha" operator="out"/>
<feColorMatrix type="matrix" values="0 0 0 0 0 0 0 0 0 0 0 0 0 0 0 0 0 0 0.25 0"/>
<feBlend mode="normal" in2="BackgroundImageFix" result="effect1_dropShadow_68_77"/>
<feBlend mode="normal" in="SourceGraphic" in2="effect1_dropShadow_68_77" result="shape"/>
</filter>
<filter id="filter1_d_68_77" x="29.1948" y="0.946472" width="66.0334" height="51.3622" filterUnits="userSpaceOnUse" color-interpolation-filters="sRGB">
<feFlood flood-opacity="0" result="BackgroundImageFix"/>
<feColorMatrix in="SourceAlpha" type="matrix" values="0 0 0 0 0 0 0 0 0 0 0 0 0 0 0 0 0 0 127 0" result="hardAlpha"/>
<feOffset dy="4"/>
<feGaussianBlur stdDeviation="2"/>
<feComposite in2="hardAlpha" operator="out"/>
<feColorMatrix type="matrix" values="0 0 0 0 0 0 0 0 0 0 0 0 0 0 0 0 0 0 0.25 0"/>
<feBlend mode="normal" in2="BackgroundImageFix" result="effect1_dropShadow_68_77"/>
<feBlend mode="normal" in="SourceGraphic" in2="effect1_dropShadow_68_77" result="shape"/>
</filter>
</defs>
</svg>
